<svg xmlns="http://www.w3.org/2000/svg" xmlns:xlink="http://www.w3.org/1999/xlink" width="1500" zoomAndPan="magnify" viewBox="0 0 1125 374.999991" height="500" preserveAspectRatio="xMidYMid meet" version="1.2"><defs/><g id="213bac6cbb"><g style="fill:#f96521;fill-opacity:1;"><g transform="translate(99.134223, 295.321499)"><path style="stroke:none" d="M 134.6875 -182.015625 C 136.101562 -181.890625 137.398438 -181.269531 138.578125 -180.15625 C 139.765625 -179.050781 140.476562 -177.707031 140.71875 -176.125 C 140.925781 -174.894531 141.054688 -173.484375 141.109375 -171.890625 C 141.171875 -170.304688 141.234375 -168.539062 141.296875 -166.59375 C 141.484375 -160.769531 141.515625 -154.367188 141.390625 -147.390625 C 141.273438 -140.410156 141.097656 -135.0625 140.859375 -131.34375 C 140.265625 -128.144531 138.117188 -126.3125 134.421875 -125.84375 C 131.773438 -125.75 128.421875 -125.59375 124.359375 -125.375 C 120.304688 -125.15625 115.816406 -124.785156 110.890625 -124.265625 C 108.773438 -124.015625 107.25 -123.429688 106.3125 -122.515625 C 105.375 -121.597656 104.75 -120.429688 104.4375 -119.015625 C 101.082031 -102.816406 97.5625 -84.984375 93.875 -65.515625 C 90.195312 -46.054688 87.359375 -26.570312 85.359375 -7.0625 C 85.097656 -4.226562 83.46875 -2.765625 80.46875 -2.671875 C 78.707031 -2.609375 75.960938 -2.914062 72.234375 -3.59375 C 68.503906 -4.269531 64.363281 -5.148438 59.8125 -6.234375 C 55.269531 -7.316406 51.035156 -8.410156 47.109375 -9.515625 C 43.179688 -10.617188 40.15625 -11.488281 38.03125 -12.125 C 35.164062 -13.269531 33.6875 -15.25 33.59375 -18.0625 C 33.476562 -21.59375 33.753906 -26.550781 34.421875 -32.9375 C 35.085938 -39.320312 36 -46.375 37.15625 -54.09375 C 38.3125 -61.820312 39.550781 -69.640625 40.875 -77.546875 C 42.207031 -85.453125 43.46875 -92.734375 44.65625 -99.390625 C 45.851562 -106.054688 46.820312 -111.4375 47.5625 -115.53125 L 47.796875 -116.875 C 47.710938 -119.164062 46.4375 -120.269531 43.96875 -120.1875 C 43.789062 -120.175781 42.554688 -120.085938 40.265625 -119.921875 C 37.984375 -119.765625 35.519531 -119.597656 32.875 -119.421875 C 30.226562 -119.242188 28.195312 -119.128906 26.78125 -119.078125 C 23.25 -118.960938 21.253906 -120.578125 20.796875 -123.921875 C 19.960938 -127.773438 19.328125 -132.300781 18.890625 -137.5 C 18.453125 -142.695312 18.15625 -147.769531 18 -152.71875 C 17.894531 -155.707031 17.84375 -158.484375 17.84375 -161.046875 C 17.851562 -163.609375 17.914062 -165.773438 18.03125 -167.546875 C 18.164062 -168.972656 18.609375 -170.316406 19.359375 -171.578125 C 20.109375 -172.835938 21.539062 -173.675781 23.65625 -174.09375 C 27.34375 -174.75 32.347656 -175.535156 38.671875 -176.453125 C 44.992188 -177.367188 52.070312 -178.222656 59.90625 -179.015625 C 67.75 -179.804688 75.8125 -180.515625 84.09375 -181.140625 C 92.375 -181.765625 100.3125 -182.207031 107.90625 -182.46875 C 113.195312 -182.632812 118.140625 -182.707031 122.734375 -182.6875 C 127.328125 -182.664062 131.3125 -182.441406 134.6875 -182.015625 Z M 134.6875 -182.015625 "/></g></g><g style="fill:#f96521;fill-opacity:1;"><g transform="translate(250.052385, 270.126578)"><path style="stroke:none" d="M 43.78125 -5.328125 C 43.695312 -3.046875 42.445312 -1.863281 40.03125 -1.78125 C 38.820312 -1.738281 36.648438 -2.003906 33.515625 -2.578125 C 30.378906 -3.160156 26.929688 -3.882812 23.171875 -4.75 C 19.421875 -5.625 15.941406 -6.535156 12.734375 -7.484375 C 9.523438 -8.441406 7.070312 -9.195312 5.375 -9.75 C 2.289062 -11.007812 0.707031 -13 0.625 -15.71875 C 0.59375 -20.894531 0.867188 -27.285156 1.453125 -34.890625 C 2.046875 -42.503906 2.875 -50.804688 3.9375 -59.796875 C 5.007812 -68.796875 6.304688 -77.914062 7.828125 -87.15625 C 9.347656 -96.394531 10.910156 -105.21875 12.515625 -113.625 C 14.128906 -122.03125 15.773438 -129.5625 17.453125 -136.21875 C 19.128906 -142.882812 20.671875 -147.984375 22.078125 -151.515625 C 23.078125 -153.523438 24.789062 -154.570312 27.21875 -154.65625 C 28.582031 -154.695312 30.828125 -154.429688 33.953125 -153.859375 C 37.078125 -153.285156 40.515625 -152.5625 44.265625 -151.6875 C 48.023438 -150.820312 51.664062 -149.914062 55.1875 -148.96875 C 58.71875 -148.03125 61.632812 -147.144531 63.9375 -146.3125 C 64.851562 -146.039062 65.703125 -145.5 66.484375 -144.6875 C 67.273438 -143.875 67.6875 -143.015625 67.71875 -142.109375 C 67.71875 -141.953125 67.6875 -141.71875 67.625 -141.40625 C 67.5625 -141.101562 67.53125 -140.953125 67.53125 -140.953125 C 65.882812 -135.578125 63.972656 -127.992188 61.796875 -118.203125 C 59.617188 -108.410156 57.40625 -97.253906 55.15625 -84.734375 C 52.914062 -72.210938 50.804688 -59.125 48.828125 -45.46875 C 46.847656 -31.8125 45.164062 -18.429688 43.78125 -5.328125 Z M 43.78125 -5.328125 "/></g></g><g style="fill:#f96521;fill-opacity:1;"><g transform="translate(314.331859, 255.529541)"><path style="stroke:none" d="M 77.765625 -85.4375 C 76.710938 -85.40625 75.796875 -85.789062 75.015625 -86.59375 C 74.242188 -87.394531 73.835938 -88.394531 73.796875 -89.59375 C 73.785156 -89.894531 73.8125 -90.234375 73.875 -90.609375 C 73.945312 -90.984375 73.984375 -91.171875 73.984375 -91.171875 C 74.796875 -93.753906 75.578125 -97.269531 76.328125 -101.71875 C 77.085938 -106.164062 77.410156 -110.117188 77.296875 -113.578125 C 77.234375 -115.378906 76.957031 -116.867188 76.46875 -118.046875 C 75.976562 -119.234375 75.128906 -119.804688 73.921875 -119.765625 C 71.828125 -119.691406 69.5625 -117.925781 67.125 -114.46875 C 64.695312 -111.007812 62.410156 -106.539062 60.265625 -101.0625 C 58.117188 -95.59375 56.398438 -89.71875 55.109375 -83.4375 C 53.816406 -77.164062 53.265625 -71.113281 53.453125 -65.28125 C 53.660156 -58.976562 54.941406 -54.210938 57.296875 -50.984375 C 59.660156 -47.753906 62.789062 -46.207031 66.6875 -46.34375 C 69.832031 -46.445312 73.21875 -47.269531 76.84375 -48.8125 C 80.46875 -50.363281 83.9375 -52.132812 87.25 -54.125 C 90.5625 -56.113281 93.175781 -57.738281 95.09375 -59 C 95.820312 -59.625 96.710938 -59.953125 97.765625 -59.984375 C 100.015625 -60.066406 101.460938 -59.289062 102.109375 -57.65625 C 102.910156 -56.03125 103.773438 -53.726562 104.703125 -50.75 C 105.628906 -47.78125 106.59375 -44.695312 107.59375 -41.5 C 108.601562 -38.3125 109.414062 -35.375 110.03125 -32.6875 C 110.644531 -30.007812 110.96875 -28.21875 111 -27.3125 C 111.0625 -25.507812 110.363281 -23.832031 108.90625 -22.28125 C 103.394531 -16.707031 96.910156 -11.992188 89.453125 -8.140625 C 81.992188 -4.296875 74.296875 -2.242188 66.359375 -1.984375 C 61.109375 -1.804688 55.488281 -2.628906 49.5 -4.453125 C 43.519531 -6.273438 37.890625 -8.671875 32.609375 -11.640625 C 27.328125 -14.617188 23.132812 -17.640625 20.03125 -20.703125 C 16.601562 -24.191406 13.800781 -28.300781 11.625 -33.03125 C 9.445312 -37.769531 7.785156 -42.554688 6.640625 -47.390625 C 5.503906 -52.234375 4.878906 -56.378906 4.765625 -59.828125 C 4.421875 -70.460938 5.410156 -81.335938 7.734375 -92.453125 C 10.066406 -103.578125 13.703125 -113.875 18.640625 -123.34375 C 23.585938 -132.8125 29.640625 -140.476562 36.796875 -146.34375 C 43.953125 -152.207031 52.109375 -155.289062 61.265625 -155.59375 C 64.398438 -155.695312 68.429688 -155.191406 73.359375 -154.078125 C 78.285156 -152.972656 83.484375 -151.304688 88.953125 -149.078125 C 94.429688 -146.859375 99.582031 -144.289062 104.40625 -141.375 C 109.226562 -138.457031 113.195312 -135.171875 116.3125 -131.515625 C 119.4375 -127.867188 121.066406 -124.097656 121.203125 -120.203125 C 121.367188 -115.097656 120.640625 -109.929688 119.015625 -104.703125 C 117.390625 -99.472656 116.023438 -95.335938 114.921875 -92.296875 C 114.515625 -91.242188 113.875 -90.328125 113 -89.546875 C 112.125 -88.765625 110.863281 -88.195312 109.21875 -87.84375 C 106.519531 -87.445312 103.1875 -87.109375 99.21875 -86.828125 C 95.257812 -86.546875 91.332031 -86.300781 87.4375 -86.09375 C 83.539062 -85.894531 80.316406 -85.675781 77.765625 -85.4375 Z M 77.765625 -85.4375 "/></g></g><g style="fill:#f96521;fill-opacity:1;"><g transform="translate(429.939467, 246.71082)"><path style="stroke:none" d="M 84.25 -30.046875 C 84.175781 -32.390625 84.222656 -35.503906 84.390625 -39.390625 C 84.554688 -43.273438 84.71875 -47.269531 84.875 -51.375 C 85.03125 -55.476562 85.203125 -59.109375 85.390625 -62.265625 C 85.578125 -65.421875 85.660156 -67.289062 85.640625 -67.875 C 85.585938 -69.34375 85.34375 -70.070312 84.90625 -70.0625 C 84.320312 -70.039062 83.84375 -69.070312 83.46875 -67.15625 C 81.9375 -60.21875 80.304688 -52.910156 78.578125 -45.234375 C 76.859375 -37.554688 75.257812 -30.507812 73.78125 -24.09375 C 72.3125 -17.675781 71.195312 -12.84375 70.4375 -9.59375 C 69.789062 -6.5 68.570312 -4.515625 66.78125 -3.640625 C 64.988281 -2.773438 63.507812 -2.320312 62.34375 -2.28125 C 60.582031 -2.226562 57.515625 -2.859375 53.140625 -4.171875 C 48.773438 -5.492188 44.109375 -7.132812 39.140625 -9.09375 C 34.171875 -11.0625 29.5625 -13.101562 25.3125 -15.21875 C 21.0625 -17.34375 18.101562 -19.1875 16.4375 -20.75 C 15.675781 -21.601562 14.945312 -22.640625 14.25 -23.859375 C 13.550781 -25.085938 13.109375 -26.359375 12.921875 -27.671875 C 12.691406 -30.304688 12.476562 -33.445312 12.28125 -37.09375 C 12.09375 -40.75 11.929688 -44.476562 11.796875 -48.28125 C 11.535156 -56.332031 11.613281 -65.050781 12.03125 -74.4375 C 12.445312 -83.832031 13.050781 -93.082031 13.84375 -102.1875 C 14.644531 -111.300781 15.617188 -119.535156 16.765625 -126.890625 C 17.921875 -134.253906 19.085938 -139.9375 20.265625 -143.9375 C 20.535156 -144.820312 20.988281 -145.640625 21.625 -146.390625 C 22.257812 -147.148438 23.15625 -147.625 24.3125 -147.8125 C 24.75 -147.96875 25.332031 -148.054688 26.0625 -148.078125 C 26.800781 -148.109375 27.609375 -148.140625 28.484375 -148.171875 C 30.242188 -148.222656 32.660156 -148.15625 35.734375 -147.96875 C 38.816406 -147.78125 42.015625 -147.484375 45.328125 -147.078125 C 48.640625 -146.671875 51.65625 -146.253906 54.375 -145.828125 C 57.101562 -145.410156 58.984375 -145.070312 60.015625 -144.8125 C 61.054688 -144.5625 61.988281 -144.046875 62.8125 -143.265625 C 63.644531 -142.484375 64.082031 -141.507812 64.125 -140.34375 C 64.144531 -139.75 64.09375 -139.007812 63.96875 -138.125 C 63.851562 -137.25 63.796875 -136.8125 63.796875 -136.8125 C 63.347656 -132.976562 62.648438 -127.53125 61.703125 -120.46875 C 60.765625 -113.414062 59.769531 -105.804688 58.71875 -97.640625 C 57.675781 -89.472656 56.835938 -81.609375 56.203125 -74.046875 C 55.578125 -66.484375 55.203125 -60.207031 55.078125 -55.21875 C 55.078125 -55.21875 55.125 -54.925781 55.21875 -54.34375 C 55.3125 -53.757812 55.503906 -53.472656 55.796875 -53.484375 C 56.097656 -53.492188 56.347656 -53.753906 56.546875 -54.265625 C 56.742188 -54.785156 56.84375 -55.046875 56.84375 -55.046875 C 58.46875 -63.453125 60.457031 -72.859375 62.8125 -83.265625 C 65.175781 -93.679688 67.6875 -104.164062 70.34375 -114.71875 C 73 -125.28125 75.503906 -134.847656 77.859375 -143.421875 C 78.660156 -145.648438 80.160156 -146.800781 82.359375 -146.875 C 85.429688 -146.976562 89.066406 -146.546875 93.265625 -145.578125 C 97.472656 -144.617188 101.425781 -143.613281 105.125 -142.5625 C 108.832031 -141.519531 111.351562 -140.726562 112.6875 -140.1875 C 113.726562 -139.925781 114.695312 -139.40625 115.59375 -138.625 C 116.5 -137.851562 116.972656 -136.882812 117.015625 -135.71875 C 117.023438 -135.132812 117.007812 -134.398438 116.96875 -133.515625 C 116.925781 -132.628906 116.90625 -132.1875 116.90625 -132.1875 C 116.351562 -126.757812 115.863281 -120.628906 115.4375 -113.796875 C 115.007812 -106.972656 114.648438 -100.113281 114.359375 -93.21875 C 114.066406 -86.320312 113.875 -79.796875 113.78125 -73.640625 C 113.695312 -67.484375 113.578125 -62.359375 113.421875 -58.265625 C 113.421875 -58.265625 113.46875 -57.96875 113.5625 -57.375 C 113.65625 -56.789062 113.847656 -56.503906 114.140625 -56.515625 C 114.429688 -56.523438 114.675781 -56.789062 114.875 -57.3125 C 115.082031 -57.832031 115.1875 -58.09375 115.1875 -58.09375 C 116.4375 -64.726562 117.828125 -72.351562 119.359375 -80.96875 C 120.898438 -89.59375 122.515625 -98.363281 124.203125 -107.28125 C 125.890625 -116.195312 127.597656 -124.382812 129.328125 -131.84375 C 131.054688 -139.300781 132.726562 -145.25 134.34375 -149.6875 C 135.144531 -151.914062 136.644531 -153.066406 138.84375 -153.140625 C 141.1875 -153.222656 144.160156 -152.921875 147.765625 -152.234375 C 151.378906 -151.546875 155.070312 -150.640625 158.84375 -149.515625 C 162.613281 -148.398438 166.019531 -147.269531 169.0625 -146.125 C 172.113281 -144.976562 174.234375 -143.984375 175.421875 -143.140625 C 177.222656 -141.890625 178.148438 -140.53125 178.203125 -139.0625 C 178.222656 -138.476562 178.132812 -137.816406 177.9375 -137.078125 C 177.738281 -136.335938 177.640625 -135.96875 177.640625 -135.96875 C 176.054688 -130.945312 174.285156 -124.738281 172.328125 -117.34375 C 170.378906 -109.945312 168.335938 -101.960938 166.203125 -93.390625 C 164.066406 -84.828125 161.929688 -76.257812 159.796875 -67.6875 C 157.671875 -59.125 155.632812 -51.039062 153.6875 -43.4375 C 151.75 -35.832031 150.101562 -29.257812 148.75 -23.71875 C 147.394531 -18.1875 146.316406 -14.304688 145.515625 -12.078125 C 144.578125 -9.117188 143.207031 -7.164062 141.40625 -6.21875 C 139.613281 -5.28125 138.128906 -4.796875 136.953125 -4.765625 C 134.910156 -4.691406 131.59375 -5.347656 127 -6.734375 C 122.414062 -8.117188 117.414062 -9.820312 112 -11.84375 C 106.582031 -13.863281 101.644531 -15.894531 97.1875 -17.9375 C 92.726562 -19.988281 89.59375 -21.71875 87.78125 -23.125 C 85.53125 -24.8125 84.351562 -27.117188 84.25 -30.046875 Z M 84.25 -30.046875 "/></g></g><g style="fill:#f96521;fill-opacity:1;"><g transform="translate(596.788493, 255.529541)"><path style="stroke:none" d="M 105.109375 -144.21875 C 106.328125 -143.507812 107.328125 -142.71875 108.109375 -141.84375 C 108.890625 -140.96875 109.53125 -139.710938 110.03125 -138.078125 C 110.726562 -135.390625 111.320312 -130.035156 111.8125 -122.015625 C 112.300781 -114.003906 112.722656 -104.679688 113.078125 -94.046875 C 113.328125 -86.242188 113.515625 -78.101562 113.640625 -69.625 C 113.773438 -61.144531 113.828125 -52.925781 113.796875 -44.96875 C 113.765625 -37.007812 113.628906 -29.765625 113.390625 -23.234375 C 113.148438 -16.703125 112.796875 -11.398438 112.328125 -7.328125 C 112.359375 -6.429688 111.976562 -5.515625 111.1875 -4.578125 C 110.394531 -3.648438 108.945312 -3.15625 106.84375 -3.09375 C 105.800781 -3.050781 103.585938 -3.125 100.203125 -3.3125 C 96.816406 -3.507812 93.128906 -3.765625 89.140625 -4.078125 C 85.148438 -4.398438 81.535156 -4.734375 78.296875 -5.078125 C 75.054688 -5.421875 72.976562 -5.722656 72.0625 -5.984375 C 69.207031 -6.640625 67.734375 -8.320312 67.640625 -11.03125 C 67.566406 -13.28125 67.5625 -15.71875 67.625 -18.34375 C 67.695312 -20.96875 67.769531 -23.332031 67.84375 -25.4375 C 67.914062 -27.539062 67.945312 -28.742188 67.9375 -29.046875 C 67.90625 -30.097656 67.539062 -30.988281 66.84375 -31.71875 C 66.144531 -32.445312 65.191406 -32.789062 63.984375 -32.75 C 63.390625 -32.726562 61.859375 -32.597656 59.390625 -32.359375 C 56.921875 -32.128906 54.410156 -31.894531 51.859375 -31.65625 C 49.316406 -31.425781 47.519531 -31.222656 46.46875 -31.046875 C 45.425781 -30.847656 44.382812 -30.546875 43.34375 -30.140625 C 42.3125 -29.734375 41.382812 -28.46875 40.5625 -26.34375 C 39.882812 -24.207031 39.144531 -21.628906 38.34375 -18.609375 C 37.539062 -15.585938 36.804688 -12.75 36.140625 -10.09375 C 35.472656 -7.445312 34.9375 -5.59375 34.53125 -4.53125 C 34 -2.40625 32.609375 -1.300781 30.359375 -1.21875 C 28.859375 -1.175781 26.207031 -1.804688 22.40625 -3.109375 C 18.601562 -4.410156 14.765625 -5.929688 10.890625 -7.671875 C 7.015625 -9.421875 4.078125 -10.863281 2.078125 -12 C -0.0664062 -13.28125 -1.171875 -14.894531 -1.234375 -16.84375 C -1.234375 -17 -1.164062 -17.378906 -1.03125 -17.984375 C -0.90625 -18.585938 -0.617188 -19.984375 -0.171875 -22.171875 C 0.273438 -24.367188 1.097656 -27.882812 2.296875 -32.71875 C 2.410156 -33.476562 2.492188 -34.234375 2.546875 -34.984375 C 2.609375 -35.734375 2.628906 -36.410156 2.609375 -37.015625 C 2.554688 -38.515625 2.335938 -40.457031 1.953125 -42.84375 C 1.578125 -45.226562 1.195312 -47.613281 0.8125 -50 C 0.4375 -52.394531 0.234375 -54.191406 0.203125 -55.390625 C 0.109375 -57.941406 1.25 -59.707031 3.625 -60.6875 L 6.515625 -61.6875 C 8.296875 -62.351562 9.507812 -63.109375 10.15625 -63.953125 C 10.8125 -64.796875 11.410156 -65.753906 11.953125 -66.828125 C 12.796875 -68.796875 14.21875 -72.40625 16.21875 -77.65625 C 18.21875 -82.90625 20.53125 -88.945312 23.15625 -95.78125 C 25.789062 -102.625 28.566406 -109.546875 31.484375 -116.546875 C 34.410156 -123.546875 37.238281 -129.832031 39.96875 -135.40625 C 42.707031 -140.988281 45.164062 -145.015625 47.34375 -147.484375 C 48.351562 -148.566406 49.226562 -149.269531 49.96875 -149.59375 C 50.707031 -149.925781 51.53125 -150.109375 52.4375 -150.140625 C 53.632812 -150.179688 55.367188 -149.863281 57.640625 -149.1875 C 59.921875 -148.507812 61.738281 -148.191406 63.09375 -148.234375 C 65.175781 -148.304688 66.1875 -149.390625 66.125 -151.484375 C 66.039062 -153.722656 66.898438 -154.875 68.703125 -154.9375 C 69.898438 -154.96875 72.050781 -154.625 75.15625 -153.90625 C 78.269531 -153.195312 81.796875 -152.269531 85.734375 -151.125 C 89.679688 -149.976562 93.4375 -148.785156 97 -147.546875 C 100.5625 -146.316406 103.265625 -145.207031 105.109375 -144.21875 Z M 55.609375 -74.796875 C 55.609375 -74.796875 55.507812 -74.34375 55.3125 -73.4375 C 55.125 -72.53125 55.035156 -71.925781 55.046875 -71.625 C 55.085938 -70.28125 56.007812 -69.632812 57.8125 -69.6875 C 58.257812 -69.707031 59.34375 -69.785156 61.0625 -69.921875 C 62.789062 -70.054688 63.726562 -70.125 63.875 -70.125 C 65.070312 -70.3125 66.070312 -70.601562 66.875 -71 C 67.6875 -71.394531 68.210938 -72.570312 68.453125 -74.53125 C 68.546875 -76.195312 68.617188 -78.492188 68.671875 -81.421875 C 68.722656 -84.359375 68.734375 -87.4375 68.703125 -90.65625 C 68.671875 -93.882812 68.613281 -96.734375 68.53125 -99.203125 C 68.457031 -101.671875 68.40625 -103.28125 68.375 -104.03125 C 68.320312 -105.832031 67.769531 -106.71875 66.71875 -106.6875 C 65.675781 -106.65625 64.875 -105.878906 64.3125 -104.359375 C 63.351562 -101.617188 61.957031 -97.328125 60.125 -91.484375 C 58.300781 -85.648438 56.796875 -80.085938 55.609375 -74.796875 Z M 55.609375 -74.796875 "/></g></g><g style="fill:#f96521;fill-opacity:1;"><g transform="translate(724.768896, 280.371534)"><path style="stroke:none" d="M 148.640625 -145.28125 C 149.523438 -144.132812 149.984375 -143.054688 150.015625 -142.046875 C 150.066406 -140.703125 149.519531 -139.421875 148.375 -138.203125 C 145.644531 -134.910156 141.851562 -130.28125 137 -124.3125 C 132.144531 -118.351562 126.882812 -111.875 121.21875 -104.875 C 115.5625 -97.875 110.0625 -91.25 104.71875 -85 C 103.738281 -83.96875 103.273438 -82.691406 103.328125 -81.171875 C 103.359375 -80.335938 103.640625 -79.421875 104.171875 -78.421875 C 108.492188 -69.984375 113.210938 -62.144531 118.328125 -54.90625 C 123.441406 -47.675781 128.175781 -41.945312 132.53125 -37.71875 C 133.75 -36.570312 134.378906 -35.328125 134.421875 -33.984375 C 134.460938 -32.804688 134.078125 -31.785156 133.265625 -30.921875 C 130.660156 -28.304688 127.019531 -25.15625 122.34375 -21.46875 C 117.664062 -17.789062 112.816406 -14.265625 107.796875 -10.890625 C 102.785156 -7.523438 98.453125 -5.109375 94.796875 -3.640625 C 93.796875 -3.273438 92.796875 -3.078125 91.796875 -3.046875 C 90.441406 -3.003906 89.253906 -3.175781 88.234375 -3.5625 C 87.210938 -3.945312 86.269531 -4.457031 85.40625 -5.09375 C 81.40625 -8.675781 77.742188 -13.691406 74.421875 -20.140625 C 71.097656 -26.585938 68.273438 -33.140625 65.953125 -39.796875 C 63.628906 -46.453125 61.890625 -51.953125 60.734375 -56.296875 C 60.359375 -57.460938 60.03125 -58.539062 59.75 -59.53125 C 59.46875 -60.53125 58.738281 -61.007812 57.5625 -60.96875 C 56.882812 -60.945312 56.347656 -60.425781 55.953125 -59.40625 C 55.566406 -58.382812 55.226562 -57.191406 54.9375 -55.828125 C 53.707031 -47.546875 52.554688 -39.179688 51.484375 -30.734375 C 50.410156 -22.285156 49.59375 -13.925781 49.03125 -5.65625 C 48.945312 -3.132812 47.472656 -1.828125 44.609375 -1.734375 C 42.929688 -1.671875 40.144531 -2 36.25 -2.71875 C 32.363281 -3.4375 28.210938 -4.351562 23.796875 -5.46875 C 19.378906 -6.582031 15.429688 -7.628906 11.953125 -8.609375 C 8.472656 -9.585938 6.304688 -10.226562 5.453125 -10.53125 C 3.578125 -11.3125 2.320312 -12.363281 1.6875 -13.6875 C 1.0625 -15.007812 0.726562 -16.257812 0.6875 -17.4375 C 0.5 -23.15625 0.722656 -30.234375 1.359375 -38.671875 C 2.003906 -47.109375 2.921875 -56.265625 4.109375 -66.140625 C 5.304688 -76.023438 6.742188 -86.085938 8.421875 -96.328125 C 10.097656 -106.566406 11.832031 -116.34375 13.625 -125.65625 C 15.414062 -134.96875 17.203125 -143.3125 18.984375 -150.6875 C 20.765625 -158.070312 22.425781 -163.726562 23.96875 -167.65625 C 25.070312 -170.039062 26.882812 -171.273438 29.40625 -171.359375 C 30.757812 -171.410156 33.210938 -171.113281 36.765625 -170.46875 C 40.316406 -169.832031 44.296875 -169 48.703125 -167.96875 C 53.109375 -166.9375 57.347656 -165.859375 61.421875 -164.734375 C 65.492188 -163.609375 68.726562 -162.660156 71.125 -161.890625 C 73.5 -161.128906 74.722656 -159.65625 74.796875 -157.46875 C 74.804688 -157.300781 74.773438 -157.003906 74.703125 -156.578125 C 74.628906 -156.148438 74.59375 -155.9375 74.59375 -155.9375 C 73.070312 -151.019531 71.359375 -144.320312 69.453125 -135.84375 C 67.546875 -127.363281 65.59375 -117.785156 63.59375 -107.109375 C 63.59375 -107.109375 63.554688 -106.894531 63.484375 -106.46875 C 63.421875 -106.050781 63.394531 -105.675781 63.40625 -105.34375 C 63.457031 -103.832031 63.988281 -103.09375 65 -103.125 C 65.5 -103.144531 65.820312 -103.453125 65.96875 -104.046875 C 66.113281 -104.640625 66.5 -105.535156 67.125 -106.734375 C 71.9375 -114.296875 76.976562 -122.285156 82.25 -130.703125 C 87.519531 -139.128906 92.4375 -146.953125 97 -154.171875 C 101.5625 -161.390625 104.957031 -166.800781 107.1875 -170.40625 C 108.144531 -171.945312 109.71875 -172.753906 111.90625 -172.828125 C 113.414062 -172.878906 115.890625 -171.742188 119.328125 -169.421875 C 122.773438 -167.097656 126.53125 -164.320312 130.59375 -161.09375 C 134.65625 -157.863281 138.375 -154.75 141.75 -151.75 C 145.132812 -148.75 147.429688 -146.59375 148.640625 -145.28125 Z M 148.640625 -145.28125 "/></g></g><g style="fill:#f96521;fill-opacity:1;"><g transform="translate(859.350757, 307.072369)"><path style="stroke:none" d="M 131.125 -179.9375 C 132.65625 -179.039062 133.90625 -178.046875 134.875 -176.953125 C 135.84375 -175.859375 136.640625 -174.289062 137.265625 -172.25 C 138.128906 -168.914062 138.867188 -162.242188 139.484375 -152.234375 C 140.097656 -142.234375 140.625 -130.597656 141.0625 -117.328125 C 141.382812 -107.585938 141.625 -97.429688 141.78125 -86.859375 C 141.945312 -76.296875 142.007812 -66.050781 141.96875 -56.125 C 141.925781 -46.195312 141.753906 -37.15625 141.453125 -29 C 141.160156 -20.84375 140.722656 -14.226562 140.140625 -9.15625 C 140.179688 -8.03125 139.707031 -6.882812 138.71875 -5.71875 C 137.726562 -4.5625 135.921875 -3.941406 133.296875 -3.859375 C 131.984375 -3.816406 129.21875 -3.910156 125 -4.140625 C 120.789062 -4.378906 116.195312 -4.695312 111.21875 -5.09375 C 106.238281 -5.488281 101.726562 -5.898438 97.6875 -6.328125 C 93.65625 -6.765625 91.066406 -7.148438 89.921875 -7.484375 C 86.347656 -8.296875 84.503906 -10.390625 84.390625 -13.765625 C 84.296875 -16.554688 84.285156 -19.59375 84.359375 -22.875 C 84.441406 -26.15625 84.53125 -29.109375 84.625 -31.734375 C 84.726562 -34.359375 84.773438 -35.859375 84.765625 -36.234375 C 84.722656 -37.546875 84.265625 -38.65625 83.390625 -39.5625 C 82.515625 -40.476562 81.328125 -40.910156 79.828125 -40.859375 C 79.078125 -40.835938 77.160156 -40.679688 74.078125 -40.390625 C 70.992188 -40.097656 67.863281 -39.804688 64.6875 -39.515625 C 61.519531 -39.222656 59.285156 -38.960938 57.984375 -38.734375 C 56.691406 -38.492188 55.394531 -38.117188 54.09375 -37.609375 C 52.800781 -37.097656 51.632812 -35.519531 50.59375 -32.875 C 49.738281 -30.21875 48.8125 -26.992188 47.8125 -23.203125 C 46.820312 -19.421875 45.910156 -15.878906 45.078125 -12.578125 C 44.253906 -9.273438 43.582031 -6.96875 43.0625 -5.65625 C 42.394531 -3 40.664062 -1.625 37.875 -1.53125 C 36 -1.46875 32.691406 -2.25 27.953125 -3.875 C 23.222656 -5.5 18.429688 -7.398438 13.578125 -9.578125 C 8.734375 -11.765625 5.070312 -13.5625 2.59375 -14.96875 C -0.0820312 -16.5625 -1.460938 -18.578125 -1.546875 -21.015625 C -1.546875 -21.203125 -1.460938 -21.671875 -1.296875 -22.421875 C -1.140625 -23.171875 -0.773438 -24.914062 -0.203125 -27.65625 C 0.359375 -30.394531 1.382812 -34.789062 2.875 -40.84375 C 3.03125 -41.769531 3.132812 -42.703125 3.1875 -43.640625 C 3.25 -44.578125 3.265625 -45.421875 3.234375 -46.171875 C 3.171875 -48.046875 2.90625 -50.472656 2.4375 -53.453125 C 1.96875 -56.441406 1.492188 -59.425781 1.015625 -62.40625 C 0.546875 -65.382812 0.289062 -67.617188 0.25 -69.109375 C 0.132812 -72.285156 1.554688 -74.488281 4.515625 -75.71875 L 8.125 -76.96875 C 10.332031 -77.78125 11.835938 -78.710938 12.640625 -79.765625 C 13.453125 -80.828125 14.210938 -82.03125 14.921875 -83.375 C 15.972656 -85.832031 17.742188 -90.332031 20.234375 -96.875 C 22.734375 -103.414062 25.625 -110.957031 28.90625 -119.5 C 32.1875 -128.039062 35.644531 -136.675781 39.28125 -145.40625 C 42.914062 -154.144531 46.445312 -161.988281 49.875 -168.9375 C 53.300781 -175.882812 56.367188 -180.898438 59.078125 -183.984375 C 60.347656 -185.335938 61.441406 -186.21875 62.359375 -186.625 C 63.273438 -187.03125 64.296875 -187.253906 65.421875 -187.296875 C 66.921875 -187.347656 69.085938 -186.945312 71.921875 -186.09375 C 74.753906 -185.25 77.015625 -184.859375 78.703125 -184.921875 C 81.316406 -185.003906 82.582031 -186.351562 82.5 -188.96875 C 82.40625 -191.78125 83.484375 -193.222656 85.734375 -193.296875 C 87.234375 -193.347656 89.914062 -192.921875 93.78125 -192.015625 C 97.644531 -191.117188 102.035156 -189.953125 106.953125 -188.515625 C 111.878906 -187.085938 116.566406 -185.601562 121.015625 -184.0625 C 125.460938 -182.53125 128.832031 -181.15625 131.125 -179.9375 Z M 69.375 -93.328125 C 69.375 -93.328125 69.25 -92.757812 69 -91.625 C 68.757812 -90.488281 68.644531 -89.734375 68.65625 -89.359375 C 68.71875 -87.679688 69.875 -86.878906 72.125 -86.953125 C 72.6875 -86.972656 74.039062 -87.0625 76.1875 -87.21875 C 78.332031 -87.382812 79.5 -87.472656 79.6875 -87.484375 C 81.1875 -87.722656 82.441406 -88.085938 83.453125 -88.578125 C 84.460938 -89.078125 85.113281 -90.554688 85.40625 -93.015625 C 85.519531 -95.078125 85.609375 -97.929688 85.671875 -101.578125 C 85.742188 -105.222656 85.757812 -109.0625 85.71875 -113.09375 C 85.675781 -117.125 85.601562 -120.679688 85.5 -123.765625 C 85.40625 -126.847656 85.34375 -128.859375 85.3125 -129.796875 C 85.238281 -132.046875 84.546875 -133.148438 83.234375 -133.109375 C 81.929688 -133.066406 80.9375 -132.09375 80.25 -130.1875 C 79.039062 -126.78125 77.289062 -121.429688 75 -114.140625 C 72.71875 -106.859375 70.84375 -99.921875 69.375 -93.328125 Z M 69.375 -93.328125 "/></g></g></g></svg>